<svg width="45" height="57" viewBox="0 0 45 57" fill="none" xmlns="http://www.w3.org/2000/svg">
<g filter="url(#filter0_d_5_4)">
<path d="M22.5 0C12.4688 0 4.5 8.15625 4.5 18C4.5 24.75 6.65625 26.8125 18.6562 45.9375C20.4375 48.75 24.4688 48.75 26.25 45.9375C38.25 26.8125 40.5 24.75 40.5 18C40.5 8.0625 32.3438 0 22.5 0ZM22.5 43.5C10.5 24.375 9 23.1562 9 18C9 10.5938 15 4.5 22.5 4.5C29.9062 4.5 36 10.5938 36 18C36 23.1562 34.5 24.1875 22.5 43.5ZM15 18C15 22.2188 18.2812 25.5 22.5 25.5C26.625 25.5 30 22.2188 30 18C30 13.875 26.625 10.5 22.5 10.5C18.2812 10.5 15 13.875 15 18Z" fill="#F7654A"/>
</g>
<defs>
<filter id="filter0_d_5_4" x="0.5" y="0" width="44" height="56.75" filterUnits="userSpaceOnUse" color-interpolation-filters="sRGB">
<feFlood flood-opacity="0" result="BackgroundImageFix"/>
<feColorMatrix in="SourceAlpha" type="matrix" values="0 0 0 0 0 0 0 0 0 0 0 0 0 0 0 0 0 0 127 0" result="hardAlpha"/>
<feOffset dy="4"/>
<feGaussianBlur stdDeviation="2"/>
<feComposite in2="hardAlpha" operator="out"/>
<feColorMatrix type="matrix" values="0 0 0 0 0 0 0 0 0 0 0 0 0 0 0 0 0 0 0.25 0"/>
<feBlend mode="normal" in2="BackgroundImageFix" result="effect1_dropShadow_5_4"/>
<feBlend mode="normal" in="SourceGraphic" in2="effect1_dropShadow_5_4" result="shape"/>
</filter>
</defs>
</svg>
